<?xml version="1.0" encoding="UTF-8"?>
<svg width="78px" height="78px" viewBox="0 0 78 78" version="1.1" xmlns="http://www.w3.org/2000/svg" xmlns:xlink="http://www.w3.org/1999/xlink">
    <!-- Generator: Sketch 41.2 (35397) - http://www.bohemiancoding.com/sketch -->
    <title>Group</title>
    <desc>Created with Sketch.</desc>
    <defs></defs>
    <g id="Page-1" stroke="none" stroke-width="1" fill="none" fill-rule="evenodd">
        <g id="Artboard">
            <g id="Group">
                <polygon id="Fill-18" fill="#BC233E" points="0 78 78 78 78 0 0 0"></polygon>
                <path d="M78.06,40.924 L45.1439067,12.958 C45.1409347,12.958 45.1359813,12.962 45.134,12.965 L45.134,64.941 L78.06,64.948 L78.06,40.924" id="Fill-19" fill="#E7922D"></path>
                <path d="M45.243358,20.476281 L45.2403514,13 C42.9212584,15.5907508 37.0884491,20.0163252 29.9106862,21.048226 L29.9106862,26.8316698 L24.2923479,29.2734349 L24.2923479,34.2549559 L0,43.6160556 L0,64.99 L51,64.99 L51,18.0755119 L45.243358,20.476281" id="Fill-20" fill="#FFFFFF"></path>
                <path d="M29.856,32.082 L25.247,33.826 C24.72,34.029 24.294,34.618 24.294,35.142 L24.298,38.712 C24.258,39.277 23.891,39.77 23.321,39.939 L0,48.925 L0,54.388 L23.395,45.281 C23.919,45.078 24.344,44.487 24.344,43.963 L24.344,40.421 C24.379,39.861 24.742,39.387 25.247,39.201 L29.856,37.449 L29.856,32.082" id="Fill-21" fill="#BC233E"></path>
                <path d="M29.856,42.573 L25.247,44.315 C24.72,44.519 24.294,45.109 24.294,45.636 L24.298,49.206 C24.258,49.767 23.891,50.263 23.321,50.434 L0,59.571 L0,64.936 L23.395,55.772 C23.919,55.57 24.344,54.978 24.344,54.452 L24.344,50.915 C24.379,50.355 24.742,49.879 25.247,49.692 L29.856,47.94 L29.856,42.573" id="Fill-22" fill="#BC233E"></path>
                <polygon id="Fill-23" fill="#1C4381" points="0 78.004 78 78.004 78 65 0 65"></polygon>
                <path d="M23.143,67.408 L21.918,67.542 L21.412,70.209 C21.002,70.035 20.809,69.987 20.516,69.987 C19.101,69.987 17.88,71.644 17.837,73.603 C17.818,74.482 18.157,75.019 18.764,75.019 C19.117,75.019 19.639,74.797 20.061,74.463 C20.297,74.272 20.495,74.069 20.649,73.849 C20.714,73.768 20.797,73.636 20.902,73.452 L20.659,74.847 L21.801,74.847 L23.143,67.408 Z M21.248,71.129 L21.143,71.715 C21.064,72.211 20.654,72.876 20.159,73.353 C19.849,73.645 19.518,73.849 19.348,73.849 C19.174,73.849 19.079,73.665 19.086,73.362 C19.096,72.866 19.339,72.099 19.599,71.653 C19.882,71.188 20.304,70.876 20.638,70.876 C20.862,70.876 21.06,70.955 21.248,71.129 L21.248,71.129 Z" id="Fill-25" fill="#FFFFFF"></path>
                <path d="M27.523,70.988 C27.538,70.34 27.092,70.006 26.21,70.006 C24.644,70.006 23.531,71.36 23.486,73.31 C23.462,74.423 23.894,74.978 24.792,74.978 C25.197,74.978 25.674,74.858 26.074,74.645 C26.217,74.575 26.391,74.463 26.608,74.311 C26.875,74.12 26.997,74.039 27.287,73.806 L26.837,73.088 C26.179,73.574 26.015,73.684 25.741,73.796 C25.536,73.877 25.293,73.927 25.161,73.927 C24.999,73.927 24.799,73.827 24.711,73.684 C24.654,73.593 24.625,73.493 24.589,73.26 L26.658,72.178 C27.249,71.865 27.511,71.513 27.523,70.988 M26.355,71.26 C26.353,71.351 26.339,71.412 26.286,71.541 L24.68,72.433 C24.897,71.765 25.025,71.493 25.273,71.21 C25.49,70.955 25.726,70.823 25.96,70.823 C26.222,70.823 26.36,70.977 26.355,71.26" id="Fill-26" fill="#FFFFFF"></path>
                <path d="M31.632,70.28 C31.184,70.097 30.762,70.006 30.267,70.006 C29.144,70.006 28.486,70.512 28.465,71.379 C28.458,71.662 28.546,71.905 28.712,72.13 C28.82,72.259 28.949,72.401 29.096,72.545 C29.146,72.583 29.335,72.745 29.652,73.038 C29.897,73.25 29.985,73.4 29.981,73.584 C29.976,73.827 29.75,73.989 29.375,73.989 C29.082,73.989 28.779,73.917 28.281,73.736 L27.924,74.716 C28.317,74.825 28.467,74.858 28.851,74.918 C29.113,74.959 29.416,74.978 29.609,74.978 C30.586,74.978 31.246,74.423 31.268,73.564 C31.277,73.068 31.072,72.754 30.388,72.168 C29.852,71.725 29.792,71.662 29.707,71.513 C29.666,71.45 29.649,71.379 29.649,71.31 C29.654,71.088 29.88,70.955 30.274,70.955 C30.598,70.955 30.808,71.017 31.268,71.26 L31.632,70.28" id="Fill-27" fill="#FFFFFF"></path>
                <path d="M37.545,67.408 L36.318,67.542 L35.812,70.209 C35.403,70.035 35.21,69.987 34.919,69.987 C33.503,69.987 32.28,71.644 32.235,73.603 C32.216,74.482 32.56,75.019 33.163,75.019 C33.518,75.019 34.037,74.797 34.461,74.463 C34.7,74.272 34.895,74.069 35.052,73.849 C35.114,73.768 35.198,73.636 35.305,73.452 L35.057,74.847 L36.199,74.847 L37.545,67.408 Z M35.648,71.129 L35.546,71.715 C35.462,72.211 35.052,72.876 34.557,73.353 C34.247,73.645 33.918,73.849 33.746,73.849 C33.577,73.849 33.48,73.665 33.486,73.362 C33.499,72.866 33.737,72.099 33.999,71.653 C34.285,71.188 34.705,70.876 35.038,70.876 C35.26,70.876 35.462,70.955 35.648,71.129 L35.648,71.129 Z" id="Fill-28" fill="#FFFFFF"></path>
                <path d="M41.924,70.988 C41.938,70.34 41.49,70.006 40.61,70.006 C39.042,70.006 37.929,71.36 37.886,73.31 C37.862,74.423 38.294,74.978 39.192,74.978 C39.598,74.978 40.074,74.858 40.472,74.645 C40.618,74.575 40.794,74.463 41.008,74.311 C41.273,74.12 41.399,74.039 41.686,73.806 L41.237,73.088 C40.58,73.574 40.415,73.684 40.139,73.796 C39.936,73.877 39.693,73.927 39.56,73.927 C39.4,73.927 39.199,73.827 39.111,73.684 C39.052,73.593 39.023,73.493 38.99,73.26 L41.056,72.178 C41.649,71.865 41.912,71.513 41.924,70.988 M40.753,71.26 C40.751,71.351 40.739,71.412 40.689,71.541 L39.08,72.433 C39.297,71.765 39.423,71.493 39.674,71.21 C39.893,70.955 40.126,70.823 40.358,70.823 C40.623,70.823 40.761,70.977 40.753,71.26" id="Fill-29" fill="#FFFFFF"></path>
                <polyline id="Fill-30" fill="#FFFFFF" points="48.673 69.954 48.097 69.954 45.649 70.845 45.923 71.796 47.217 71.291 46.579 74.847 47.782 74.847 48.673 69.954"></polyline>
                <path d="M54.553,69.319 C54.572,68.54 53.936,68.066 52.863,68.066 C51.519,68.066 50.566,68.693 50.544,69.592 C50.535,69.997 50.728,70.449 51.042,70.785 L51.467,71.228 L50.606,71.796 C50.053,72.158 49.61,72.886 49.596,73.472 C49.574,74.444 50.239,74.959 51.502,74.959 C53.121,74.959 54.251,74.231 54.274,73.159 C54.284,72.694 54.024,72.168 53.588,71.796 L52.933,71.228 L53.581,70.785 C54.064,70.449 54.26,70.237 54.422,69.885 C54.503,69.703 54.551,69.501 54.553,69.319 M53.283,69.562 C53.278,69.822 53.142,70.068 52.928,70.209 L52.341,70.593 L51.979,70.146 C51.872,70.006 51.803,69.813 51.808,69.632 C51.817,69.238 52.189,68.945 52.661,68.945 C53.038,68.945 53.292,69.198 53.283,69.562 M52.992,73.05 C52.98,73.603 52.413,74.089 51.786,74.089 C51.221,74.089 50.842,73.768 50.856,73.29 C50.864,72.904 51.157,72.442 51.548,72.178 L52.122,71.796 L52.725,72.37 C52.904,72.545 52.999,72.775 52.992,73.05" id="Fill-31" fill="#FFFFFF"></path>
                <path d="M58.979,69.575 L55.926,69.575 L55.311,73.012 L55.95,73.012 C56.243,73.012 56.653,73.121 56.865,73.252 C57.065,73.384 57.18,73.657 57.172,74.001 C57.149,74.861 56.517,75.566 55.771,75.566 C55.476,75.566 55.194,75.495 54.703,75.292 L54.339,76.243 C54.889,76.456 55.232,76.527 55.669,76.527 C57.142,76.527 58.405,75.305 58.438,73.851 C58.453,73.143 58.171,72.585 57.661,72.345 C57.385,72.213 57.191,72.17 56.679,72.123 L56.953,70.595 L58.795,70.595 L58.979,69.575" id="Fill-32" fill="#FFFFFF"></path>
                <path d="M63.348,69.575 L60.295,69.575 L59.68,73.012 L60.318,73.012 C60.609,73.012 61.024,73.121 61.234,73.252 C61.434,73.384 61.546,73.657 61.539,74.001 C61.52,74.861 60.886,75.566 60.14,75.566 C59.844,75.566 59.563,75.495 59.072,75.292 L58.708,76.243 C59.258,76.456 59.599,76.527 60.035,76.527 C61.51,76.527 62.773,75.305 62.807,73.851 C62.821,73.143 62.54,72.585 62.03,72.345 C61.753,72.213 61.561,72.17 61.045,72.123 L61.322,70.595 L63.165,70.595 L63.348,69.575" id="Fill-33" fill="#FFFFFF"></path>
            </g>
        </g>
    </g>
</svg>