<?xml version="1.0" encoding="UTF-8"?>
<svg width="165px" height="28px" viewBox="0 0 165 28" version="1.1" xmlns="http://www.w3.org/2000/svg" xmlns:xlink="http://www.w3.org/1999/xlink">
    <!-- Generator: Sketch 44.1 (41455) - http://www.bohemiancoding.com/sketch -->
    <title>logo-be</title>
    <desc>Created with Sketch.</desc>
    <defs></defs>
    <g id="Page-1" stroke="none" stroke-width="1" fill="none" fill-rule="evenodd">
        <g id="logo-be" transform="translate(82.500000, 14.000000) scale(-1, 1) rotate(-180.000000) translate(-82.500000, -14.000000) ">
            <g id="g24" transform="translate(94.412028, 4.965969)" fill-rule="nonzero" fill="#FFFFFF">
                <path d="M11.7000979,13.7142789 C12.0473911,15.8019921 11.1076735,16.3139919 9.4468303,16.3139919 L7.4412623,16.3139919 C6.17051751,16.3139919 5.85404413,16.2205634 5.64486921,15.0228497 L4.76051302,9.96770933 L7.80482144,9.96770933 C8.67804826,9.96770933 9.20027214,10.2462806 9.54157256,10.6211376 C9.71364961,10.8097089 9.84063848,11.0254231 9.94508326,11.2499944 C10.0352596,11.4399943 10.1060309,11.6351371 10.1713803,11.8185655 C10.1790852,11.8388513 10.2101904,11.9137084 10.2187514,11.9354226 L11.0463193,11.9505655 L10.0826307,6.42942537 L9.24478959,6.42942537 C9.48564039,7.88028179 9.07157107,8.64256713 7.59193673,8.64256713 L4.53079159,8.64256713 L3.53713937,2.95028425 C3.29343489,1.55885637 3.57166892,1.52628495 4.83841855,1.52628495 L7.69324245,1.52628495 C9.11780072,1.52628495 9.90199265,2.05771326 10.4013871,4.01371229 L11.2318087,4.01914086 L10.485,0.200857043 L0.112149719,0.200857043 L2.53606757,14.0911358 C2.76236459,15.3785638 2.84426527,15.9825635 2.60997795,16.3251347 C2.39110051,16.6445631 1.88485724,16.7491345 0.857246201,16.9257059 C0.805879917,16.9331344 0.631519921,16.9688487 0.577870691,16.9788487 L0.716274289,17.6394198 L13.1449174,17.6394198 L12.5373684,13.7142789 L11.7000979,13.7142789 Z" id="path26"></path>
            </g>
            <g id="g28" transform="translate(105.533029, 4.617598)" fill-rule="nonzero" fill="#FFFFFF">
                <path d="M5.70736485,8.28571016 C6.00215025,8.09542454 6.32090657,7.90285321 6.63766532,7.70228188 C7.90555643,6.88885371 9.16859627,5.87371136 8.81730796,3.86685522 C8.37099203,1.30314221 6.0717801,0.266571296 3.51459528,0.266571296 C2.72726429,0.266571296 2.06178555,0.343142686 1.52215421,0.440571209 C1.00934747,0.532571164 0.497111479,0.672571094 0.215738391,0.750285341 L0.615824668,2.89856999 C1.38717503,2.29228457 2.42563006,1.5131421 3.81508804,1.5131421 C5.41086725,1.5131421 6.11658291,2.32028456 6.26982566,3.18942698 C6.37683875,3.79428383 6.12314638,4.25971217 5.67683045,4.67628339 C5.45253101,4.88571185 5.1839995,5.08114033 4.88978484,5.27599737 C4.59214576,5.46942585 4.27396017,5.66142575 3.95663068,5.8602828 C2.692164,6.65771097 1.41000449,7.60428193 1.72733397,9.41885246 C2.05664892,11.3048515 3.6221791,12.9157079 6.67932909,12.9157079 C7.33938583,12.9157079 7.93894451,12.8317079 8.42720957,12.7357079 C8.81416891,12.6574223 9.13121303,12.5734223 9.34923437,12.5162795 C9.38718834,12.5034223 9.50533079,12.4722795 9.53871888,12.4631367 L9.18571836,10.3891377 C9.00251195,10.529709 8.88151582,10.6314233 8.72541939,10.7459947 C8.55648139,10.8731374 8.35044552,11.0177088 8.10731177,11.1548516 C7.62418334,11.42828 7.00950014,11.6679942 6.30150153,11.6679942 C5.48620446,11.6679942 4.4974035,11.3631372 4.31219951,10.3014234 C4.20975232,9.71599517 4.46658373,9.27399539 4.91375577,8.86942416 C5.13834058,8.66656712 5.41086725,8.47742435 5.70736485,8.28571016" id="path30"></path>
            </g>
            <g id="g32" transform="translate(115.925541, 4.680255)" fill-rule="nonzero" fill="#FFFFFF">
                <path d="M2.28294594,12.5714223 L2.63080983,14.577707 L5.73904073,16.9734201 L4.97054405,12.5714223 L8.33760395,12.5714223 L8.13756081,11.4268515 L4.77050091,11.4268515 L3.47179004,3.98428373 C3.15731424,2.18628463 3.15018003,1.45057071 5.06813999,1.45057071 C5.3663498,1.45057071 5.75017009,1.48599926 6.06008,1.55685637 L5.87116622,0.414856936 C5.22537789,0.300571279 4.65892193,0.203999898 4.09817333,0.203999898 C1.62203309,0.203999898 0.191767459,0.599999701 0.715703553,3.59228393 L2.08347354,11.4268515 L0.0770494255,11.4268515 L0.2776633,12.5714223 L2.28294594,12.5714223 Z" id="path34"></path>
            </g>
            <g id="g36" transform="translate(122.210348, 4.776912)" fill-rule="nonzero" fill="#FFFFFF">
                <path d="M7.70494255,7.14285359 L7.96177397,8.41142439 C8.25513252,10.0742807 8.53251045,11.767137 6.99751468,11.767137 C5.41971366,11.767137 5.02733233,10.4451377 4.82129646,9.33142393 C4.81501836,9.29599537 4.7993231,9.18999543 4.79275964,9.15370973 L1.60063047,9.14228116 C2.22929671,10.9617088 3.42213597,12.7562794 7.12364744,12.7562794 C10.8271565,12.7562794 11.070861,10.8248518 10.6239743,8.26371017 L9.24992622,0.389999806 L6.56232811,0.389999806 L6.80745943,1.79771339 C6.63937753,1.62999919 6.53179371,1.52571353 6.41022683,1.41285644 C6.19791286,1.21885654 5.94307902,1.0079995 5.64543994,0.814856737 C5.04588127,0.426285502 4.26711133,0.107142804 3.26290049,0.107142804 C1.2310786,0.107142804 0.00713420607,1.57457065 0.279660878,3.13456987 C0.912893008,6.75742521 5.98046226,7.0845679 7.70494255,7.14285359 M3.29857152,3.55285537 C3.09225028,2.38057024 3.53713937,1.61085634 4.43262491,1.61085634 C5.88514927,1.61085634 7.00835867,2.94056997 7.31027827,4.67942624 L7.55883401,6.10285411 C6.44589786,6.06313984 3.69808706,5.84685423 3.29857152,3.55285537 M3.29857152,3.55285537 C3.09225028,2.38057024 3.53713937,1.61085634 4.43262491,1.61085634 C5.88514927,1.61085634 7.00835867,2.94056997 7.31027827,4.67942624 L7.55883401,6.10285411 C6.44589786,6.06313984 3.69808706,5.84685423 3.29857152,3.55285537 M7.70494255,7.14285359 L7.96177397,8.41142439 C8.25513252,10.0742807 8.53251045,11.767137 6.99751468,11.767137 C5.41971366,11.767137 5.02733233,10.4451377 4.82129646,9.33142393 C4.81501836,9.29599537 4.7993231,9.18999543 4.79275964,9.15370973 L1.60063047,9.14228116 C2.22929671,10.9617088 3.42213597,12.7562794 7.12364744,12.7562794 C10.8271565,12.7562794 11.070861,10.8248518 10.6239743,8.26371017 L9.24992622,0.389999806 L6.56232811,0.389999806 L6.80745943,1.79771339 C6.63937753,1.62999919 6.53179371,1.52571353 6.41022683,1.41285644 C6.19791286,1.21885654 5.94307902,1.0079995 5.64543994,0.814856737 C5.04588127,0.426285502 4.26711133,0.107142804 3.26290049,0.107142804 C1.2310786,0.107142804 0.00713420607,1.57457065 0.279660878,3.13456987 C0.912893008,6.75742521 5.98046226,7.0845679 7.70494255,7.14285359" id="path38"></path>
            </g>
            <g id="g40" transform="translate(133.438904, 4.834969)" fill-rule="nonzero" fill="#FFFFFF">
                <path d="M8.56104728,7.14285359 C8.8178787,8.60685286 8.97968249,11.1948516 6.61369439,11.1948516 C4.30449457,11.1948516 3.55939809,8.29885301 3.2420686,6.47885392 C2.88935346,4.46199778 2.60113153,1.55285637 4.93487302,1.55285637 C7.34766151,1.55285637 8.13699007,4.70714051 8.37812624,6.0885684 L8.56104728,7.14285359 Z M13.2288156,18.4754194 L10.060372,0.331999835 L7.37277392,0.331999835 L7.60962956,1.68657059 C7.39560338,1.50971353 7.24007768,1.38457074 7.06999821,1.25371366 C6.81659121,1.06285661 6.53122297,0.865142427 6.2101837,0.687142515 C5.5658222,0.328571265 4.78277175,0.0491428327 3.84647854,0.0491428327 C0.440893935,0.0491428327 -0.322751482,2.91828426 0.237426378,6.13885409 C0.810445809,9.41285246 2.69701526,12.6982794 6.13484648,12.6982794 C8.17694162,12.6982794 8.84242037,11.6919942 9.19855993,10.8508517 C9.24222127,10.9642803 9.28902167,11.2119944 9.34580995,11.5414228 L9.58266559,12.9477078 C9.74989138,13.9471359 9.92054159,14.916564 9.92054159,14.916564 C10.220749,16.643706 9.93823442,17.0794201 8.63353081,17.1802772 C8.59072558,17.1839914 8.41779242,17.1997057 8.37156277,17.2025629 L8.4979809,17.8148483 L13.2288156,18.4754194 Z" id="path42"></path>
            </g>
            <g id="g44" transform="translate(145.234315, 4.676198)" fill-rule="nonzero" fill="#FFFFFF">
                <path d="M7.13420607,12.8571365 C10.9113401,12.8571365 12.2988005,10.2371378 11.6467341,6.51142533 C10.9113401,2.29371314 8.78391988,0.207999896 4.94657312,0.207999896 C0.754228265,0.207999896 -0.204038293,2.9088557 0.427481627,6.52999675 C1.18056842,10.8502803 3.34537191,12.8571365 7.13420607,12.8571365 M8.70658508,6.52999675 C9.12579103,8.93456698 9.39318107,11.8677084 6.98153406,11.8677084 C4.49340835,11.8677084 3.76771691,8.79428134 3.36991358,6.51142533 C2.98923234,4.33371213 2.63451962,1.19742798 5.09753292,1.19742798 C7.56054622,1.19742798 8.25342031,3.93771233 8.70658508,6.52999675 M8.70658508,6.52999675 C9.12579103,8.93456698 9.39318107,11.8677084 6.98153406,11.8677084 C4.49340835,11.8677084 3.76771691,8.79428134 3.36991358,6.51142533 C2.98923234,4.33371213 2.63451962,1.19742798 5.09753292,1.19742798 C7.56054622,1.19742798 8.25342031,3.93771233 8.70658508,6.52999675 M7.13420607,12.8571365 C10.9113401,12.8571365 12.2988005,10.2371378 11.6467341,6.51142533 C10.9113401,2.29371314 8.78391988,0.207999896 4.94657312,0.207999896 C0.754228265,0.207999896 -0.204038293,2.9088557 0.427481627,6.52999675 C1.18056842,10.8502803 3.34537191,12.8571365 7.13420607,12.8571365" id="path46"></path>
            </g>
            <g id="g48" transform="translate(35.715348, 5.037655)" fill-rule="nonzero" fill="#FFFFFF">
                <path d="M4.85126012,9.99999502 L6.5066813,9.99999502 C8.70344603,9.99999502 10.4898512,10.7114232 10.9278915,13.2208506 C11.3228411,15.4859923 10.1942097,16.2422776 7.87216834,16.2422776 C6.33517499,16.2422776 5.92738377,16.1665634 5.71564053,14.9511354 L4.85126012,9.99999502 Z M13.8908699,13.3285648 C13.4622468,10.868566 11.5708261,9.85456652 10.2344467,9.41456674 C11.929534,9.02513837 13.8395037,8.02513886 13.272477,4.78256905 C12.8658272,2.45399878 11.3396779,1.28942793 9.65743207,0.707999648 C8.81844943,0.419428363 7.93751767,0.273142721 7.13677438,0.202285614 C6.3368872,0.129142793 5.61233723,0.129142793 5.08326451,0.129142793 L0.183777148,0.129142793 L2.60997795,14.0194216 C2.83399202,15.3068495 2.92160007,15.9117064 2.69073716,16.2534205 C2.4630133,16.5914203 1.82179086,16.7328488 0.673469053,16.924563 L0.787045613,17.5677055 L8.47087091,17.5677055 C11.4161565,17.5677055 14.5104044,16.8742773 13.8908699,13.3285648 L13.8908699,13.3285648 Z M3.53228811,2.44199878 C3.36192327,1.47028498 4.30135552,1.4545707 5.75958724,1.4545707 C8.5590497,1.4545707 9.96391756,2.69514152 10.4176531,5.29256879 C10.8528396,7.78571041 9.16146206,8.67399568 6.9110481,8.67399568 L4.61982648,8.67399568 L3.53228811,2.44199878 Z" id="path50"></path>
            </g>
            <g id="g52" transform="translate(48.926442, 4.776912)" fill-rule="nonzero" fill="#FFFFFF">
                <path d="M7.70494255,7.14285359 L7.96320081,8.41142439 C8.25399105,10.0742807 8.5339373,11.767137 6.99694394,11.767137 C5.44026018,11.767137 5.03532264,10.4779948 4.82871603,9.37170962 C4.81844278,9.3228525 4.80360363,9.19999542 4.79504258,9.15199545 L1.60005974,9.14228116 C2.23015282,10.9617088 3.42099449,12.7562794 7.12393281,12.7562794 C10.8294394,12.7562794 11.0720024,10.8248518 10.624545,8.26371017 L9.24907011,0.389999806 L6.561472,0.389999806 L6.80831553,1.79771339 C6.63909216,1.62999919 6.53122297,1.52571353 6.41193904,1.41285644 C6.19762749,1.22028511 5.94279365,1.0079995 5.64515458,0.814856737 C5.0455959,0.426285502 4.26711133,0.107142804 3.26318585,0.107142804 C1.23079323,0.107142804 0.00799031079,1.57457065 0.280516983,3.13456987 C0.913463745,6.75742521 5.98074763,7.0845679 7.70494255,7.14285359 M3.29771541,3.55285537 C3.09253565,2.38057024 3.53542716,1.61085634 4.43291028,1.61085634 C5.88315169,1.61085634 7.00693183,2.94056997 7.31056364,4.67942624 L7.55911938,6.10285411 C6.44532713,6.06313984 3.69780169,5.84685423 3.29771541,3.55285537 M3.29771541,3.55285537 C3.09253565,2.38057024 3.53542716,1.61085634 4.43291028,1.61085634 C5.88315169,1.61085634 7.00693183,2.94056997 7.31056364,4.67942624 L7.55911938,6.10285411 C6.44532713,6.06313984 3.69780169,5.84685423 3.29771541,3.55285537 M7.70494255,7.14285359 L7.96320081,8.41142439 C8.25399105,10.0742807 8.5339373,11.767137 6.99694394,11.767137 C5.44026018,11.767137 5.03532264,10.4779948 4.82871603,9.37170962 C4.81844278,9.3228525 4.80360363,9.19999542 4.79504258,9.15199545 L1.60005974,9.14228116 C2.23015282,10.9617088 3.42099449,12.7562794 7.12393281,12.7562794 C10.8294394,12.7562794 11.0720024,10.8248518 10.624545,8.26371017 L9.24907011,0.389999806 L6.561472,0.389999806 L6.80831553,1.79771339 C6.63909216,1.62999919 6.53122297,1.52571353 6.41193904,1.41285644 C6.19762749,1.22028511 5.94279365,1.0079995 5.64515458,0.814856737 C5.0455959,0.426285502 4.26711133,0.107142804 3.26318585,0.107142804 C1.23079323,0.107142804 0.00799031079,1.57457065 0.280516983,3.13456987 C0.913463745,6.75742521 5.98074763,7.0845679 7.70494255,7.14285359" id="path54"></path>
            </g>
            <g id="g56" transform="translate(60.047157, 5.043397)" fill-rule="nonzero" fill="#FFFFFF">
                <path d="M8.84641552,6.85713944 C9.20683561,8.93428127 9.48849407,10.6245661 7.84876815,10.6245661 C6.19391771,10.6245661 4.32247277,8.26885303 4.00571402,6.45056822 L2.9024804,0.12342851 L0.21431155,0.12342851 L1.72990229,8.81313847 C2.03096578,10.5245662 1.72419492,10.9568517 0.291931712,11.0302802 C0.254548472,11.0308517 0.096454466,11.0502802 0.0567882803,11.0514231 L0.17207705,11.6605656 L5.06271799,12.5025652 L4.50853287,9.3248525 C5.33866908,10.5479948 7.02776371,12.4899938 9.3372489,12.4899938 C11.7320592,12.4899938 12.2191828,10.7857089 11.8710335,8.79570991 L10.3582965,0.12342851 L7.66898615,0.12342851 L8.84641552,6.85713944 Z" id="path58"></path>
            </g>
            <g id="g60" transform="translate(72.574652, 4.750569)" fill-rule="nonzero" fill="#FFFFFF">
                <path d="M7.41957431,9.14285259 C7.61876134,10.3294234 7.59735872,11.7934227 6.10003155,11.7934227 C4.40751251,11.7934227 3.69266506,9.95056648 3.25833459,7.46542486 C2.59570954,3.66571246 3.97746257,1.63714204 6.26012314,1.63714204 C7.01663435,1.63714204 8.03197456,1.77742769 8.68461173,1.96857045 C8.70772656,1.97542759 8.7873443,2.00228472 8.80874691,2.00971329 L8.60328178,0.749428198 C8.07192611,0.568285431 7.70009129,0.428856929 7.15675016,0.317714128 C6.60256503,0.203142756 5.9036982,0.133714219 4.83556487,0.133714219 C1.19027094,0.133714219 -0.5130921,2.72399864 0.170364841,6.63485384 C0.786760245,10.1779949 2.69159326,12.7828508 6.40708778,12.7828508 C9.19599162,12.7828508 10.8568348,11.4079943 10.6048546,9.36942391 C10.6000034,9.32228108 10.5831666,9.19599542 10.5754617,9.14885259 L7.41957431,9.14285259 Z" id="path62"></path>
            </g>
            <g id="g64" transform="translate(82.379191, 4.676198)" fill-rule="nonzero" fill="#FFFFFF">
                <path d="M7.13420607,12.8571365 C10.9101987,12.8571365 12.2988005,10.2371378 11.6481609,6.51142533 C10.9101987,2.29371314 8.78391988,0.207999896 4.94543164,0.207999896 C0.75508437,0.207999896 -0.202896821,2.9088557 0.427196259,6.52999675 C1.18285137,10.8502803 3.34851096,12.8571365 7.13420607,12.8571365 M8.70715582,6.52999675 C9.1260764,8.93456698 9.39375181,11.8677084 6.98096332,11.8677084 C4.49454982,11.8677084 3.76771691,8.79428134 3.36991358,6.51142533 C2.98923234,4.33371213 2.63509035,1.19742798 5.09810365,1.19742798 C7.56111696,1.19742798 8.25456179,3.93771233 8.70715582,6.52999675 M8.70715582,6.52999675 C9.1260764,8.93456698 9.39375181,11.8677084 6.98096332,11.8677084 C4.49454982,11.8677084 3.76771691,8.79428134 3.36991358,6.51142533 C2.98923234,4.33371213 2.63509035,1.19742798 5.09810365,1.19742798 C7.56111696,1.19742798 8.25456179,3.93771233 8.70715582,6.52999675 M7.13420607,12.8571365 C10.9101987,12.8571365 12.2988005,10.2371378 11.6481609,6.51142533 C10.9101987,2.29371314 8.78391988,0.207999896 4.94543164,0.207999896 C0.75508437,0.207999896 -0.202896821,2.9088557 0.427196259,6.52999675 C1.18285137,10.8502803 3.34851096,12.8571365 7.13420607,12.8571365" id="path66"></path>
            </g>
            <g id="g68" transform="translate(159.871708, 13.208136)" stroke="#FFFFFF" stroke-width="0.5">
                <path d="M0,2.28571315 C0,3.46371256 0.95312993,4.41856923 2.12913246,4.41856923 C3.30456425,4.41856923 4.25712344,3.46371256 4.25712344,2.28571315 C4.25712344,1.10942802 3.30456425,0.155999922 2.12913246,0.155999922 C0.95312993,0.155999922 0,1.10942802 0,2.28571315 Z" id="path70"></path>
            </g>
            <g id="g72" transform="translate(161.169791, 14.001393)" fill-rule="nonzero" fill="#FFFFFF">
                <path d="M0,0 L0.475423492,0 L0.475423492,1.32828505 L0.652637171,1.32828505 C1.11464836,1.32828505 1.20225641,1.0525709 1.26646426,0.796856746 L1.43397542,0 L1.9139648,0 L1.75501469,0.774571043 C1.68110432,1.12399944 1.62089162,1.42342786 1.17200737,1.49771354 L1.17200737,1.50599925 C1.42569974,1.55314208 1.81094687,1.721142 1.81094687,2.2019989 C1.81094687,2.91799855 1.1537438,2.98599851 0.652637171,2.98599851 L0,2.98599851 L0,0 Z M0.475423492,2.70074151 L0.652637171,2.70074151 C1.10237752,2.70074151 1.33381117,2.58274157 1.33381117,2.18102749 C1.33381117,1.70959915 0.955412876,1.61388491 0.652637171,1.61388491 L0.475423492,1.61388491 L0.475423492,2.70074151 Z" id="Combined-Shape"></path>
            </g>
            <g id="g76" transform="translate(161.645214, 15.559278)"></g>
            <polygon id="path84" fill="#C1133C" fill-rule="nonzero" points="0.243419111 27.7428433 27.8759114 27.7428433 27.8759114 0.0705713935 0.243419111 0.0705713935"></polygon>
            <g id="g86" transform="translate(15.890331, 4.587741)" fill-rule="nonzero" fill="#F39900">
                <path d="M11.9854662,8.57142431 L0.269958358,18.4439908 C0.269102253,18.4439908 0.267675412,18.4425623 0.267104675,18.4414194 L0.267104675,0.0928570966 L11.9854662,0.0902856694 L11.9854662,8.57142431 Z" id="path88"></path>
            </g>
            <g id="g90" transform="translate(0.179753, 4.393969)" fill-rule="nonzero" fill="#FFFFFF">
                <path d="M15.9806216,15.999992 L15.9797655,18.6394193 C15.1638977,17.7248483 13.1115293,16.1625634 10.5863057,15.7979921 L10.5863057,13.7559932 L8.60984525,12.8937079 L8.60984525,11.135423 L0.0636371181,7.83028182 L0.0636371181,0.284285573 L18.0061654,0.284285573 L18.0061654,16.8474202 L15.9806216,15.999992 Z" id="path92"></path>
            </g>
            <g id="g94" transform="translate(0.211515, 8.280539)" fill-rule="nonzero" fill="#C1133C">
                <path d="M10.558625,7.99999602 L8.93345284,7.38428204 C8.74796348,7.31256779 8.59757441,7.10456789 8.59757441,6.91999656 L8.59900126,5.65942576 C8.58501821,5.45971157 8.4557464,5.28571166 8.25456179,5.22628311 L0.0316758749,2.05399898 L0.0316758749,0.125714223 L8.28081566,3.34028405 C8.46544892,3.4119983 8.61526725,3.62056963 8.61526725,3.80571239 L8.61526725,5.05599748 C8.62753808,5.25371167 8.75566842,5.42114016 8.93345284,5.48685441 L10.558625,6.10513982 L10.558625,7.99999602 Z" id="path96"></path>
            </g>
            <g id="g98" transform="translate(0.211515, 4.576998)" fill-rule="nonzero" fill="#C1133C">
                <path d="M10.558625,7.99999602 L8.93345284,7.38485347 C8.74796348,7.31313922 8.59757441,7.10456789 8.59757441,6.9188537 L8.59900126,5.6582829 C8.58501821,5.46056871 8.4557464,5.28542594 8.25456179,5.22514026 L0.0316758749,1.99942758 L0.0316758749,0.105142805 L8.28081566,3.34028405 C8.46544892,3.41171259 8.61526725,3.62056963 8.61526725,3.80628382 L8.61526725,5.05514034 C8.62753808,5.25256881 8.75566842,5.42085445 8.93345284,5.48685441 L10.558625,6.10513982 L10.558625,7.99999602 Z" id="path100"></path>
            </g>
            <polygon id="path102" fill="#074990" fill-rule="nonzero" points="0.243419111 4.68228338 27.8759114 4.68228338 27.8759114 0.0705713935 0.243419111 0.0705713935"></polygon>
            <g id="g104" transform="translate(6.405747, 0.952571)" fill-rule="nonzero" fill="#FFFFFF">
                <path d="M1.9975777,2.85714144 L1.56524481,2.80971289 L1.38717503,1.86828478 C1.2427787,1.92971333 1.17457569,1.94657046 1.07127238,1.94657046 C0.572163326,1.94657046 0.141828017,1.36199932 0.126988868,0.670285381 C0.120425398,0.359714107 0.239423956,0.170571344 0.453735506,0.170571344 C0.57815606,0.170571344 0.762218576,0.248857019 0.910610062,0.366571246 C0.994222957,0.433999784 1.06385281,0.505714034 1.11835814,0.583428281 C1.14090223,0.61228541 1.17058053,0.658571101 1.2076784,0.723428211 L1.12178256,0.231142742 L1.52443715,0.231142742 L1.9975777,2.85714144 Z M1.32953064,1.5434278 L1.2921474,1.33685648 C1.26503742,1.16171371 1.12035572,0.926856682 0.945424988,0.758571051 C0.835843583,0.655142531 0.71941334,0.583428281 0.659771377,0.583428281 C0.598417205,0.583428281 0.564458384,0.648285392 0.567312066,0.755142481 C0.570736485,0.930285251 0.656346958,1.20142797 0.747664796,1.35828504 C0.847829049,1.52257067 0.996505903,1.63285633 1.11407762,1.63285633 C1.19340999,1.63285633 1.26275447,1.60514206 1.32953064,1.5434278 L1.32953064,1.5434278 Z" id="path106"></path>
            </g>
            <g id="g108" transform="translate(8.520925, 1.117199)" fill-rule="nonzero" fill="#FFFFFF">
                <path d="M1.42684121,1.42857072 C1.43197784,1.65742775 1.27502531,1.77542769 0.963688555,1.77542769 C0.411501006,1.77542769 0.0194050405,1.29742793 0.00342441891,0.609142554 C-0.00542199661,0.216285607 0.146964645,0.0202857042 0.463723394,0.0202857042 C0.606978252,0.0202857042 0.774774779,0.0622856833 0.916032059,0.137999931 C0.966542238,0.162285634 1.02761104,0.201999899 1.10408973,0.255999873 C1.19854662,0.323142696 1.24106649,0.351714111 1.34379905,0.433999784 L1.18456358,0.687428229 C0.952844562,0.515714029 0.894629441,0.47714262 0.798460343,0.437428354 C0.725976809,0.408856939 0.640080968,0.391428377 0.593851313,0.391428377 C0.537063033,0.391428377 0.466577077,0.426571216 0.43518657,0.47714262 C0.414925425,0.509142604 0.404937536,0.544285443 0.392381334,0.626571117 L1.12206793,1.00857093 C1.32981601,1.1191423 1.42227532,1.24342795 1.42684121,1.42857072 M1.01534021,1.33285648 C1.01419873,1.30057078 1.00877674,1.27914222 0.99051317,1.23342796 L0.424342577,0.918856686 C0.500821266,1.15457085 0.546480185,1.25028509 0.633802867,1.35028504 C0.710281556,1.44057071 0.793038346,1.4868564 0.8752244,1.4868564 C0.968254447,1.4868564 1.01648168,1.43285643 1.01534021,1.33285648" id="path110"></path>
            </g>
            <g id="g112" transform="translate(9.969768, 1.081485)" fill-rule="nonzero" fill="#FFFFFF">
                <path d="M1.42684121,1.71428486 C1.26874721,1.77914197 1.12007035,1.81114196 0.94513962,1.81114196 C0.549619235,1.81114196 0.317614854,1.63257062 0.31019528,1.32657077 C0.307341597,1.22657082 0.338446736,1.14057086 0.397232594,1.06142804 C0.43518657,1.01571378 0.480560121,0.965428091 0.532497141,0.914856688 C0.550760708,0.901428123 0.616680772,0.84399958 0.728545123,0.74057106 C0.814726333,0.665999669 0.845831471,0.612856838 0.844689998,0.547999727 C0.842407052,0.462285484 0.763074681,0.404856941 0.631234553,0.404856941 C0.527931249,0.404856941 0.421203526,0.4302855 0.24513132,0.494285468 L0.119569294,0.148571355 C0.257972891,0.109714231 0.311051384,0.0979999512 0.446030563,0.0771428188 C0.538489874,0.0625713974 0.645217597,0.0559999721 0.713420607,0.0559999721 C1.05814544,0.0559999721 1.29072056,0.251999875 1.2984255,0.554856867 C1.30156455,0.729999637 1.22965176,0.841142439 0.987944856,1.04771376 C0.799316448,1.20428512 0.778199198,1.22657082 0.747664796,1.27914222 C0.733681752,1.30114221 0.72740365,1.32657077 0.72740365,1.35114218 C0.729401228,1.42914215 0.809304336,1.47628498 0.947707934,1.47628498 C1.06242597,1.47628498 1.13576561,1.45428499 1.2984255,1.36857075 L1.42684121,1.71428486 Z" id="path114"></path>
            </g>
            <g id="g116" transform="translate(11.484131, 0.952571)" fill-rule="nonzero" fill="#FFFFFF">
                <path d="M1.9975777,2.85714144 L1.56438871,2.80971289 L1.38631892,1.86828478 C1.24220796,1.92971333 1.17371958,1.94657046 1.07127238,1.94657046 C0.572163326,1.94657046 0.140686544,1.36199932 0.124705922,0.670285381 C0.118142452,0.359714107 0.239138587,0.170571344 0.452023296,0.170571344 C0.577299955,0.170571344 0.760506367,0.248857019 0.909753958,0.366571246 C0.993937589,0.433999784 1.0629967,0.505714034 1.11835814,0.583428281 C1.14004613,0.61228541 1.16972443,0.658571101 1.20739303,0.723428211 L1.12007035,0.231142742 L1.52243957,0.231142742 L1.9975777,2.85714144 Z M1.32867454,1.5434278 L1.2921474,1.33685648 C1.26303984,1.16171371 1.11835814,0.926856682 0.943998147,0.758571051 C0.834131373,0.655142531 0.718557235,0.583428281 0.658059168,0.583428281 C0.598131837,0.583428281 0.563602279,0.648285392 0.566455962,0.755142481 C0.570451117,0.930285251 0.654634749,1.20142797 0.746808691,1.35828504 C0.848114417,1.52257067 0.995649799,1.63285633 1.11322151,1.63285633 C1.19169778,1.63285633 1.26303984,1.60514206 1.32867454,1.5434278 L1.32867454,1.5434278 Z" id="path118"></path>
            </g>
            <g id="g120" transform="translate(13.598453, 1.117199)" fill-rule="nonzero" fill="#FFFFFF">
                <path d="M1.42684121,1.42857072 C1.43197784,1.65742775 1.27388384,1.77542769 0.963688555,1.77542769 C0.410359533,1.77542769 0.0182635675,1.29742793 0.00342441891,0.609142554 C-0.00542199661,0.216285607 0.146679277,0.0202857042 0.463438026,0.0202857042 C0.606978252,0.0202857042 0.774774779,0.0622856833 0.915175954,0.137999931 C0.96625687,0.162285634 1.02846715,0.201999899 1.10408973,0.255999873 C1.19711978,0.323142696 1.24192259,0.351714111 1.34294295,0.433999784 L1.18456358,0.687428229 C0.952844562,0.515714029 0.894629441,0.47714262 0.797604238,0.437428354 C0.725976809,0.408856939 0.640080968,0.391428377 0.592995208,0.391428377 C0.537063033,0.391428377 0.466291708,0.426571216 0.43518657,0.47714262 C0.413783952,0.509142604 0.403796063,0.544285443 0.392381334,0.626571117 L1.12092646,1.00857093 C1.32981601,1.1191423 1.42227532,1.24342795 1.42684121,1.42857072 M1.01419873,1.33285648 C1.01305726,1.30057078 1.00877674,1.27914222 0.991369275,1.23342796 L0.424342577,0.918856686 C0.500821266,1.15457085 0.545338712,1.25028509 0.633802867,1.35028504 C0.710566924,1.44057071 0.793038346,1.4868564 0.874653664,1.4868564 C0.968254447,1.4868564 1.01648168,1.43285643 1.01419873,1.33285648" id="path122"></path>
            </g>
            <g id="g124" transform="translate(16.263764, 0.910857)" fill-rule="nonzero" fill="#FFFFFF">
                <polygon id="path126" points="1.14147297 1.999999 0.938005414 1.999999 0.0750518478 1.68571345 0.171506314 1.34999933 0.628095502 1.52799924 0.40265459 0.272857007 0.826997167 0.272857007"></polygon>
            </g>
            <g id="g128" transform="translate(17.480745, 1.134914)" fill-rule="nonzero" fill="#FFFFFF">
                <path d="M1.9975777,1.999999 C2.00442654,2.27514172 1.77984173,2.4422845 1.40201418,2.4422845 C0.927732157,2.4422845 0.591568367,2.22114175 0.584148793,1.90399905 C0.580724374,1.76085627 0.648642016,1.60114206 0.759650262,1.48257069 L0.909468589,1.32599934 L0.605836779,1.12571373 C0.410930269,0.997713789 0.254833841,0.741142488 0.249697212,0.534285448 C0.242277638,0.190857048 0.476279597,0.00914285259 0.921739424,0.00914285259 C1.49219054,0.00914285259 1.89084998,0.265999868 1.89912565,0.644571108 C1.90255007,0.808571026 1.81123224,0.99428522 1.65741875,1.12571373 L1.42598511,1.32599934 L1.65485044,1.48257069 C1.82550065,1.60114206 1.89427439,1.67599917 1.95134804,1.80057053 C1.9795995,1.8645705 1.99700696,1.93599904 1.9975777,1.999999 M1.54983493,1.91428476 C1.54783735,1.82257052 1.50018085,1.73571342 1.42455827,1.68599916 L1.21766629,1.55057066 L1.08982132,1.70799915 C1.05215271,1.75771341 1.02818178,1.82571338 1.02932325,1.88971335 C1.03274767,2.02857042 1.16373169,2.13199894 1.33038675,2.13199894 C1.46308298,2.13199894 1.55297398,2.04285613 1.54983493,1.91428476 M1.44738773,0.683142517 C1.4431072,0.487999757 1.2427787,0.316285557 1.02161831,0.316285557 C0.822716644,0.316285557 0.689164306,0.429714072 0.694015566,0.598285417 C0.69658388,0.734571063 0.800172552,0.897428125 0.937720045,0.99085665 L1.1403315,1.12571373 L1.35293084,0.923142398 C1.41628259,0.861428143 1.4493853,0.779999612 1.44738773,0.683142517" id="path130"></path>
            </g>
            <g id="g132" transform="translate(19.326735, 0.473228)" fill-rule="nonzero" fill="#FFFFFF">
                <path d="M1.71220946,2.57142729 L0.635800445,2.57142729 L0.41892058,1.35828504 L0.644076124,1.35828504 C0.747379427,1.35828504 0.891775758,1.31971363 0.966827606,1.27342794 C1.03731356,1.22685653 1.07755048,1.13028515 1.07526754,1.00914235 C1.06670649,0.70542822 0.844119262,0.456571201 0.581009742,0.456571201 C0.476850333,0.456571201 0.377542185,0.481714046 0.20460903,0.553142582 L0.0759079525,0.217428463 C0.269958358,0.142285643 0.391239861,0.117142799 0.544767975,0.117142799 C1.06413818,0.117142799 1.509598,0.548571156 1.5212981,1.06228519 C1.5267201,1.31199935 1.42741195,1.50885639 1.24705922,1.59371349 C1.15003402,1.6402849 1.08211638,1.65542775 0.90119291,1.67199917 L0.997932745,2.21142747 L1.6471455,2.21142747 L1.71220946,2.57142729 Z" id="path134"></path>
            </g>
            <g id="g136" transform="translate(20.866982, 0.473228)" fill-rule="nonzero" fill="#FFFFFF">
                <path d="M1.71220946,2.57142729 L0.636085813,2.57142729 L0.419205948,1.35828504 L0.644361492,1.35828504 C0.746808691,1.35828504 0.892917231,1.31971363 0.967112974,1.27342794 C1.03759893,1.22685653 1.07640901,1.13028515 1.07498217,1.00914235 C1.0675626,0.70542822 0.844119262,0.456571201 0.581009742,0.456571201 C0.476850333,0.456571201 0.377827553,0.481714046 0.204894398,0.553142582 L0.0761933208,0.217428463 C0.270243726,0.142285643 0.390098388,0.117142799 0.544482607,0.117142799 C1.06413818,0.117142799 1.50988337,0.548571156 1.52158347,1.06228519 C1.52643473,1.31199935 1.42712658,1.50885639 1.24762996,1.59371349 C1.15003402,1.6402849 1.08240174,1.65542775 0.900336806,1.67199917 L0.997932745,2.21142747 L1.64771623,2.21142747 L1.71220946,2.57142729 Z" id="path138"></path>
            </g>
        </g>
    </g>
</svg>